<?xml version="1.0" ?><svg id="Layer_1" style="enable-background:new 0 0 512 512;" version="1.1" viewBox="0 0 512 512" xml:space="preserve" xmlns="http://www.w3.org/2000/svg" xmlns:xlink="http://www.w3.org/1999/xlink"><style type="text/css">
	.st0{fill:#ffffff;}
</style><g><path class="st0" d="M243.5,295.8L92.2,144.5c3.7-8,11.7-13.5,21.1-13.5h285.5c9.3,0,17.4,5.5,21.1,13.5L268.5,295.8   c-3.3,3.3-7.8,5.2-12.5,5.2S246.8,299.1,243.5,295.8z"/><path class="st0" d="M421.9,170.7v187.2c0,12.8-10.4,23.2-23.2,23.2H113.3c-12.8,0-23.2-10.4-23.2-23.2V170.7l139.2,139.2   c7.1,7.1,16.6,11,26.7,11s19.5-3.9,26.7-11L421.9,170.7z"/></g></svg>